#N canvas 623 456 450 300 12;
#X floatatom 283 98 5 0 0 0 - - - 0;
#X obj 257 171 print tcp;
#X msg 178 3 listen 3001;
#X obj 42 150 osc~ 440;
#X obj 36 259 dac~;
#X obj 167 198 print nota;
#X obj 179 44 netreceive;
#X obj 130 103 int, f 4;
#X obj 36 206 *~ 0.4;
#X connect 2 0 6 0;
#X connect 3 0 8 0;
#X connect 6 0 1 0;
#X connect 6 0 7 0;
#X connect 6 1 0 0;
#X connect 7 0 3 0;
#X connect 7 0 5 0;
#X connect 8 0 4 0;
#X connect 8 0 4 1;
